<?xml version="1.0" encoding="UTF-8"?>
<svg width="25px" height="25px" viewBox="0 0 25 25" version="1.1" xmlns="http://www.w3.org/2000/svg" xmlns:xlink="http://www.w3.org/1999/xlink">
    <!-- Generator: Sketch 50.2 (55047) - http://www.bohemiancoding.com/sketch -->
    <title>github-logo</title>
    <desc>Created with Sketch.</desc>
    <defs></defs>
    <g id="Desktop" stroke="none" stroke-width="1" fill="none" fill-rule="evenodd">
        <g id="01-IEO---NOT-LOGIN" transform="translate(-1138.000000, -2479.000000)" fill="#777778" fill-rule="nonzero">
            <g id="Group-6" transform="translate(1006.000000, 2479.000000)">
                <g id="github-logo" transform="translate(132.000000, 0.000000)">
                    <path d="M16.6917634,24.5017892 C16.570676,24.5455815 16.4488845,24.598556 16.3242771,24.6204522 C15.8469673,24.7059178 15.5414327,24.4587032 15.5386167,23.9692184 C15.5322807,23.0601751 15.5322807,22.1525445 15.5470647,21.2435012 C15.5625526,20.1981367 15.5386167,19.1661924 14.7452123,18.3037668 C15.2168902,18.2190075 15.6364723,18.159676 16.0469024,18.0650281 C18.7657379,17.4385158 20.1779554,15.7179024 20.3581786,12.8622209 C20.4504022,11.4085992 20.1920353,10.0750532 19.2289678,8.93009659 C19.1592721,8.84957528 19.1557521,8.6666365 19.18884,8.54938616 C19.4450948,7.60290752 19.3704711,6.67832503 19.0719765,5.75303621 C18.9980568,5.52206717 18.8755614,5.4507281 18.6481704,5.46556098 C17.8498381,5.5100596 17.1183855,5.79117788 16.4735244,6.22345022 C15.8518953,6.64230233 15.2732099,6.73341856 14.5347173,6.5639 C12.9084848,6.19590345 11.2716923,6.30326521 9.64897972,6.68044401 C9.46523657,6.7242363 9.2181337,6.66561113 9.04987847,6.56672531 C8.28815397,6.11891377 7.52642946,5.68381613 6.6478415,5.5100596 C5.96848461,5.37727006 5.90934888,5.41117377 5.72912571,6.07017718 C5.50243875,6.90081814 5.47991086,7.73216542 5.71152579,8.56775067 C5.74461364,8.68923897 5.7101178,8.88418532 5.62915817,8.97388889 C3.82903843,10.9890408 4.48093944,14.7968515 5.69392587,16.2554175 C6.63728154,17.3883665 7.89039579,17.8983349 9.28149341,18.1632076 C9.5243723,18.2084126 9.76584319,18.2430226 10.0087221,18.2854022 C9.80033903,18.8292743 9.61307589,19.3427743 9.40117286,19.8477983 C9.35963705,19.9452715 9.22798966,20.0272055 9.12027815,20.0681725 C7.75593241,20.5993306 6.58307379,20.2087316 5.80234138,18.9663018 C5.38487129,18.3037668 4.84912975,17.8086313 4.05079741,17.6652468 C4.02545353,17.6603026 3.99940565,17.6468823 3.97617376,17.650414 C3.76145474,17.7069202 3.54884772,17.7662517 3.3348327,17.8241705 C3.45521615,17.9922764 3.54039975,18.2183012 3.70161501,18.319306 C4.37815591,18.748753 4.81815389,19.3611388 5.10890456,20.0837117 C5.56579846,21.2166607 6.45283439,21.7216848 7.6052771,21.8205706 C8.16777052,21.8664819 8.73589591,21.8276339 9.35189309,21.8276339 C9.35189309,22.5311359 9.37723697,23.3342301 9.34133314,24.1337926 C9.32302922,24.5646523 8.8914792,24.7369962 8.37474557,24.5604144 C7.00406386,24.0900004 5.73334969,23.4154577 4.63581873,22.4675664 C0.673020912,19.0425852 -0.854652078,14.7127985 0.462525878,9.64489987 C1.77547985,4.59324671 5.19760815,1.49458866 10.3142567,0.521975906 C17.3943522,-0.8214587 24.1013294,4.35168276 24.8039182,11.5625786 C25.3586676,17.2471011 22.0238349,22.5664523 16.6917634,24.5017892 Z M10.01717,18.2585618 C10.0129461,18.2684504 10.0101301,18.2755137 10.0059061,18.2854022 C10.018578,18.2875212 10.03125,18.2896402 10.0446259,18.2917592 C10.0544819,18.2924655 10.0629298,18.3101237 10.01717,18.2585618 Z M6.81398473,20.5053891 C6.92451223,20.5739028 7.03011174,20.6607811 7.14979119,20.6982165 C7.19343899,20.712343 7.27439862,20.6127508 7.41730997,20.5068017 C7.21878288,20.4312247 7.10191941,20.3648299 6.97871998,20.3478781 C6.9308482,20.3422275 6.86889648,20.4502956 6.81398473,20.5053891 Z M7.8228121,20.6791456 C7.83900403,20.75331 7.98613935,20.8458389 8.07273096,20.8444262 C8.15650657,20.8430136 8.2381702,20.7314138 8.32194581,20.6678444 C8.24591416,20.597918 8.16988251,20.5301105 7.93615558,20.3189187 C7.88546782,20.4658348 7.8016922,20.5844977 7.8228121,20.6791456 Z M9.06043843,20.3803691 C8.9562469,20.4050906 8.86824731,20.5018575 8.77320774,20.5682522 C8.82882349,20.638885 8.88443923,20.7045734 8.97384682,20.8154668 C9.09704626,20.7024544 9.18082187,20.6240521 9.26530149,20.5477687 C9.19490181,20.4863182 9.11253419,20.3676553 9.06043843,20.3803691 Z M5.9924205,19.961517 C6.05014824,20.0709978 6.13955583,20.1656456 6.26064327,20.3203313 C6.3416029,20.1875418 6.4296025,20.0858306 6.41411457,20.0653472 C6.33737892,19.9643423 6.2331874,19.881702 6.13040387,19.806125 C6.1233639,19.8004744 5.98045256,19.9375019 5.9924205,19.961517 Z" id="Shape"></path>
                </g>
            </g>
        </g>
    </g>
</svg>