<?xml version="1.0" encoding="UTF-8"?>
<svg width="17px" height="17px" viewBox="0 0 17 17" version="1.1" xmlns="http://www.w3.org/2000/svg" xmlns:xlink="http://www.w3.org/1999/xlink">
    <!-- Generator: Sketch 51.1 (57501) - http://www.bohemiancoding.com/sketch -->
    <title>Shape</title>
    <desc>Created with Sketch.</desc>
    <defs></defs>
    <g id="Kyber-Developer" stroke="none" stroke-width="1" fill="none" fill-rule="evenodd">
        <g id="Kyber-Develope-2" transform="translate(-1487.000000, -22.000000)" fill="#666666" fill-rule="nonzero">
            <path d="M1499.1498,32.6918239 L1498.38193,32.6918239 L1498.10978,32.4293882 C1499.06232,31.3213265 1499.63579,29.8827902 1499.63579,28.3178959 C1499.63579,24.8284734 1496.80732,22 1493.3179,22 C1489.82847,22 1487,24.8284734 1487,28.3178959 C1487,31.8073185 1489.82847,34.6357919 1493.3179,34.6357919 C1494.88279,34.6357919 1496.32133,34.0623213 1497.42939,33.109777 L1497.69182,33.3819325 L1497.69182,34.1497999 L1502.55174,39 L1504,37.5517439 L1499.1498,32.6918239 Z M1493.3179,32.6918239 C1490.89766,32.6918239 1488.94397,30.7381361 1488.94397,28.3178959 C1488.94397,25.8976558 1490.89766,23.943968 1493.3179,23.943968 C1495.73814,23.943968 1497.69182,25.8976558 1497.69182,28.3178959 C1497.69182,30.7381361 1495.73814,32.6918239 1493.3179,32.6918239 Z" id="Shape"></path>
        </g>
    </g>
</svg>