<?xml version="1.0" encoding="UTF-8"?>
<svg width="139px" height="46px" viewBox="0 0 139 46" version="1.1" xmlns="http://www.w3.org/2000/svg" xmlns:xlink="http://www.w3.org/1999/xlink">
    <!-- Generator: Sketch 51.1 (57501) - http://www.bohemiancoding.com/sketch -->
    <title>KyberDev</title>
    <desc>Created with Sketch.</desc>
    <defs></defs>
    <g id="Kyber-Developer" stroke="none" stroke-width="1" fill="none" fill-rule="evenodd">
        <g id="Kyber-Develope-2" transform="translate(-18.000000, -7.000000)" fill-rule="nonzero">
            <g id="KyberDev" transform="translate(18.000000, 7.000000)">
                <path d="M14.1070989,0.475960543 L0.90315962,10.5282472 C0.330734508,10.9597848 0,11.6324757 0,12.3559357 L0,33.6662757 C0,34.3770435 0.330734508,35.0624267 0.90315962,35.4939644 L14.1070989,45.5335585 C14.9339351,46.1554805 16.0787853,46.1554805 16.8929011,45.5335585 L30.0968402,35.481272 C30.6692653,35.0497344 31,34.3770435 31,33.6535835 L31,12.3432434 C31,11.6324757 30.6692653,10.9470925 30.0968402,10.5155549 L16.8929011,0.475960543 C16.0787853,-0.158653514 14.9339351,-0.158653514 14.1070989,0.475960543 Z M11.6647517,24.7182177 L28.6339761,34.4278127 L15.8498153,44.1501001 L11.6647517,24.7182177 Z M15.8625358,1.85941919 L28.6339761,11.5817066 L11.6647517,21.2913016 L15.8625358,1.85941919 Z M12.1481329,23.0047596 L29.2700041,13.1936263 L29.2700041,32.8032007 L12.1481329,23.0047596 Z M1.72999589,12.0640132 L13.8908494,2.81134029 L9.54041853,23.0047596 L13.8908494,43.198179 L1.72999589,33.9455061 L1.72999589,12.0640132 Z" id="Shape" fill="#31CB9E"></path>
                <path d="M42.3299047,21.512221 L46.5440994,26.3613178 L44.7340682,26.3613178 L40.5060565,21.512221 L44.3333743,17.2433581 L46.1295884,17.2433581 L42.3299047,21.512221 Z M40.4646054,26.3613178 L39,26.3613178 L39,17.2433581 L40.4646054,17.2433581 L40.4646054,26.3613178 Z M50.124246,27.1349628 C49.8386925,27.7888802 49.495573,28.2631935 49.0948771,28.5579171 C48.694181,28.8526405 48.2036815,29 47.6233632,29 C47.4391352,29 47.2503043,28.9884874 47.0568649,28.9654623 C46.8634255,28.9424369 46.6792001,28.9078996 46.5041837,28.8618491 L46.5041837,27.6323061 C46.6699888,27.6507262 46.817369,27.664541 46.9463287,27.6737513 C47.0752881,27.6829614 47.1996402,27.6875664 47.3193885,27.6875664 C47.632576,27.6875664 47.9112169,27.6230965 48.155319,27.4941552 C48.3994211,27.3652136 48.6135829,27.0981245 48.7978109,26.6928799 L49.0741516,26.0573858 L46.3660133,19.5781084 L47.9273379,19.5781084 L49.8617224,24.5239108 L51.879009,19.5781084 L53.4265166,19.5781084 L50.124246,27.1349628 Z M55.9980197,20.4070138 C56.2559388,20.1030803 56.5806359,19.8636211 56.9721204,19.6886291 C57.3636049,19.5136371 57.7942314,19.4261424 58.2640129,19.4261424 C58.7430057,19.4261424 59.1851464,19.5159396 59.5904479,19.6955366 C59.9957495,19.8751337 60.3480804,20.1238028 60.6474509,20.4415515 C60.9468213,20.7593002 61.1794056,21.1346064 61.345211,21.5674814 C61.5110161,22.0003563 61.5939175,22.4700647 61.5939175,22.9766206 C61.5939175,23.4831764 61.5110161,23.9505823 61.345211,24.3788523 C61.1794056,24.8071221 60.9491242,25.1801259 60.6543594,25.4978746 C60.3595946,25.8156232 60.0095665,26.0642924 59.604265,26.2438895 C59.1989634,26.4234864 58.7568228,26.5132838 58.2778299,26.5132838 C57.7712027,26.5132838 57.308337,26.4165791 56.8892182,26.2231669 C56.4700994,26.0297546 56.1361912,25.7534555 55.8874834,25.3942615 L55.8874834,26.3613178 L54.5472313,26.3613178 L54.5472313,16 L55.9980197,16 L55.9980197,20.4070138 Z M58.0291233,20.752391 C57.7712042,20.752391 57.5201972,20.7961384 57.2760951,20.8836344 C57.031993,20.9711304 56.8132255,21.1069774 56.6197861,21.2911796 C56.4263467,21.4753817 56.2720579,21.7056309 56.1569155,21.9819341 C56.0417731,22.2582373 55.9842026,22.5897961 55.9842026,22.9766206 C55.9842026,23.363445 56.0440757,23.6973064 56.163824,23.9782146 C56.2835721,24.2591228 56.4401637,24.4893721 56.6336031,24.6689692 C56.8270425,24.8485661 57.04581,24.9798083 57.2899121,25.0626993 C57.5340142,25.1455901 57.7804155,25.1870351 58.0291233,25.1870351 C58.3238881,25.1870351 58.5979233,25.1317752 58.8512367,25.021254 C59.1045502,24.9107326 59.3233177,24.7587683 59.5075457,24.565356 C59.6917738,24.3719438 59.8368512,24.139392 59.9427822,23.8676939 C60.0487133,23.5959958 60.1016781,23.2943693 60.1016781,22.9628055 C60.1016781,22.6312416 60.0487133,22.3296152 59.9427822,22.0579171 C59.8368512,21.7862189 59.689471,21.5536672 59.5006372,21.360255 C59.3118035,21.1668428 59.0907332,21.0171808 58.8374197,20.9112646 C58.5841062,20.8053484 58.3146768,20.752391 58.0291233,20.752391 Z M66.1550732,19.4261424 C66.6064317,19.4261424 67.0255442,19.5044271 67.4124231,19.6609989 C67.7993019,19.8175707 68.1309073,20.034005 68.4072494,20.3103082 C68.6835915,20.5866113 68.9000561,20.9158677 69.0566499,21.2980871 C69.2132436,21.6803065 69.2915394,22.0924526 69.2915394,22.5345377 C69.2915394,22.7187398 69.2800254,22.8937292 69.2569968,23.0595111 C69.2339684,23.225293 69.2086374,23.3542326 69.1810031,23.4463336 L64.1239695,23.4463336 C64.2252949,24.0081501 64.473999,24.4456236 64.8700892,24.7587673 C65.2661794,25.0719108 65.7543763,25.2284804 66.3346946,25.2284804 C66.7307848,25.2284804 67.0900242,25.1571031 67.4124231,25.0143465 C67.7348222,24.8715898 68.034188,24.675878 68.3105301,24.4272051 L69.0151988,25.4218916 C68.6559542,25.7626656 68.2506585,26.0297546 67.7993,26.2231669 C67.3479414,26.4165791 66.8505331,26.5132838 66.3070605,26.5132838 C65.7820107,26.5132838 65.2938137,26.4234864 64.8424552,26.2438895 C64.3910966,26.0642924 64.0042236,25.8156232 63.6818245,25.4978746 C63.3594256,25.1801259 63.1061158,24.8048198 62.9218877,24.3719448 C62.7376597,23.9390697 62.6455471,23.4739663 62.6455471,22.9766206 C62.6455471,22.4792748 62.7353568,22.0141714 62.9149792,21.5812965 C63.0946016,21.1484214 63.3433057,20.7731152 63.6610989,20.4553666 C63.9788924,20.1376179 64.3496455,19.8866463 64.77337,19.7024442 C65.1970945,19.5182421 65.6576576,19.4261424 66.1550732,19.4261424 Z M66.1136221,20.6556854 C65.6162065,20.6556854 65.1924883,20.8053474 64.8424552,21.1046758 C64.492422,21.4040043 64.2621403,21.8069404 64.1516036,22.3134962 L67.8407511,22.3134962 C67.8223283,21.7793101 67.6450115,21.3694665 67.3087953,21.0839532 C66.9725792,20.7984399 66.5741922,20.6556854 66.1136221,20.6556854 Z M74.0875846,19.5090329 C74.2073329,19.5090329 74.3109597,19.5159404 74.3984678,19.5297556 C74.4859761,19.5435707 74.5665748,19.5596882 74.6402658,19.5781084 L74.6402658,20.8629118 L74.1981208,20.8629118 C73.9309903,20.8629118 73.6753777,20.9020541 73.4312756,20.98034 C73.1871735,21.0586259 72.9753145,21.176053 72.7956921,21.3326248 C72.61607,21.4891966 72.4732954,21.6849084 72.3673641,21.9197662 C72.2614331,22.1546239 72.2084683,22.4286204 72.2084683,22.741764 L72.2084683,26.3613178 L70.7576799,26.3613178 L70.7576799,19.5781084 L72.097932,19.5781084 L72.097932,20.4899043 C72.3374284,20.1675506 72.629886,19.9234864 72.9753135,19.7577045 C73.3207413,19.5919226 73.6914944,19.5090329 74.0875846,19.5090329 Z M78.6901916,17.2433581 C79.4455263,17.2433581 80.1294626,17.3538777 80.7420208,17.5749203 C81.3545788,17.7959628 81.877318,18.1067992 82.3102539,18.5074389 C82.7431897,18.9080785 83.0770979,19.3869968 83.3119887,19.9442083 C83.5468792,20.5014197 83.664323,21.116185 83.664323,21.7885228 C83.664323,22.4516505 83.5468792,23.0618108 83.3119887,23.6190223 C83.0770979,24.1762337 82.7431897,24.659757 82.3102539,25.0696068 C81.877318,25.4794564 81.3545788,25.7972004 80.7420208,26.0228481 C80.1294626,26.2484955 79.4455263,26.3613178 78.6901916,26.3613178 L75.843883,26.3613178 L75.843883,17.2433581 L78.6901916,17.2433581 Z M77.3084884,18.5696068 L77.3084884,25.0488842 L78.6763745,25.0488842 C79.2106358,25.0488842 79.694227,24.9682969 80.1271629,24.8071201 C80.5600987,24.6459431 80.9239436,24.420299 81.2187084,24.1301806 C81.5134732,23.8400622 81.7414518,23.4946884 81.9026515,23.0940488 C82.0638509,22.6934092 82.1444495,22.2582382 82.1444495,21.7885228 C82.1444495,21.3003872 82.0638509,20.8583087 81.9026515,20.4622741 C81.7414518,20.0662396 81.5134732,19.7277733 81.2187084,19.446865 C80.9239436,19.1659568 80.5600987,18.9495225 80.1271629,18.7975558 C79.694227,18.645589 79.2106358,18.5696068 78.6763745,18.5696068 L77.3084884,18.5696068 Z M88.1978446,19.4261424 C88.6492031,19.4261424 89.0683156,19.5044271 89.4551945,19.6609989 C89.8420733,19.8175707 90.1736787,20.034005 90.4500208,20.3103082 C90.7263629,20.5866113 90.9428275,20.9158677 91.0994213,21.2980871 C91.256015,21.6803065 91.3343108,22.0924526 91.3343108,22.5345377 C91.3343108,22.7187398 91.3227966,22.8937292 91.2997682,23.0595111 C91.2767396,23.225293 91.2514086,23.3542326 91.2237745,23.4463336 L86.1667409,23.4463336 C86.2680663,24.0081501 86.5167704,24.4456236 86.9128606,24.7587673 C87.3089508,25.0719108 87.7971478,25.2284804 88.377466,25.2284804 C88.7735562,25.2284804 89.1327954,25.1571031 89.4551945,25.0143465 C89.7775936,24.8715898 90.0769595,24.675878 90.3533015,24.4272051 L91.0579702,25.4218916 C90.6987254,25.7626656 90.2934299,26.0297546 89.8420714,26.2231669 C89.3907128,26.4165791 88.8933045,26.5132838 88.3498319,26.5132838 C87.8247821,26.5132838 87.3365851,26.4234864 86.8852266,26.2438895 C86.433868,26.0642924 86.046995,25.8156232 85.7245959,25.4978746 C85.4021968,25.1801259 85.1488872,24.8048198 84.9646591,24.3719448 C84.7804311,23.9390697 84.6883185,23.4739663 84.6883185,22.9766206 C84.6883185,22.4792748 84.7781282,22.0141714 84.9577506,21.5812965 C85.137373,21.1484214 85.3860769,20.7731152 85.7038703,20.4553666 C86.0216635,20.1376179 86.3924169,19.8866463 86.8161414,19.7024442 C87.2398659,19.5182421 87.700429,19.4261424 88.1978446,19.4261424 Z M88.1563935,20.6556854 C87.6589779,20.6556854 87.2352597,20.8053474 86.8852266,21.1046758 C86.5351934,21.4040043 86.3049117,21.8069404 86.194375,22.3134962 L89.8835225,22.3134962 C89.8650998,21.7793101 89.6877829,21.3694665 89.3515667,21.0839532 C89.0153506,20.7984399 88.6169634,20.6556854 88.1563935,20.6556854 Z M95.5224066,26.5132838 L95.0111764,26.5132838 L91.7365399,19.5781084 L93.2840474,19.5781084 L95.259883,24.0680127 L97.2495356,19.5781084 L98.7832261,19.5781084 L95.5224066,26.5132838 Z M102.722615,19.4261424 C103.173974,19.4261424 103.593086,19.5044271 103.979965,19.6609989 C104.366844,19.8175707 104.69845,20.034005 104.974791,20.3103082 C105.251134,20.5866113 105.467598,20.9158677 105.624192,21.2980871 C105.780786,21.6803065 105.859082,22.0924526 105.859082,22.5345377 C105.859082,22.7187398 105.847568,22.8937292 105.824539,23.0595111 C105.801511,23.225293 105.77618,23.3542326 105.748545,23.4463336 L100.691512,23.4463336 C100.792837,24.0081501 101.041541,24.4456236 101.437631,24.7587673 C101.833722,25.0719108 102.321918,25.2284804 102.902237,25.2284804 C103.298327,25.2284804 103.657566,25.1571031 103.979965,25.0143465 C104.302364,24.8715898 104.60173,24.675878 104.878072,24.4272051 L105.582741,25.4218916 C105.223496,25.7626656 104.818201,26.0297546 104.366842,26.2231669 C103.915484,26.4165791 103.418075,26.5132838 102.874603,26.5132838 C102.349553,26.5132838 101.861356,26.4234864 101.409997,26.2438895 C100.958639,26.0642924 100.571766,25.8156232 100.249367,25.4978746 C99.9269677,25.1801259 99.6736579,24.8048198 99.4894299,24.3719448 C99.305202,23.9390697 99.2130892,23.4739663 99.2130892,22.9766206 C99.2130892,22.4792748 99.3028992,22.0141714 99.4825213,21.5812965 C99.6621437,21.1484214 99.9108479,20.7731152 100.228641,20.4553666 C100.546434,20.1376179 100.917188,19.8866463 101.340912,19.7024442 C101.764637,19.5182421 102.2252,19.4261424 102.722615,19.4261424 Z M102.681164,20.6556854 C102.183749,20.6556854 101.760031,20.8053474 101.409997,21.1046758 C101.059964,21.4040043 100.829683,21.8069404 100.719146,22.3134962 L104.408293,22.3134962 C104.38987,21.7793101 104.212554,21.3694665 103.876337,21.0839532 C103.540121,20.7984399 103.141734,20.6556854 102.681164,20.6556854 Z M108.776011,26.3613178 L107.325222,26.3613178 L107.325222,16 L108.776011,16 L108.776011,26.3613178 Z M113.848396,19.4261424 C114.345812,19.4261424 114.810981,19.5182421 115.243917,19.7024442 C115.676852,19.8866463 116.056817,20.1376179 116.383822,20.4553666 C116.710827,20.7731152 116.968742,21.146119 117.157576,21.5743889 C117.346409,22.0026588 117.440825,22.4654597 117.440825,22.9628055 C117.440825,23.4601512 117.346409,23.9252546 117.157576,24.3581297 C116.968742,24.7910047 116.710827,25.1663108 116.383822,25.4840595 C116.056817,25.8018081 115.67455,26.0527798 115.237008,26.236982 C114.799467,26.4211839 114.331995,26.5132838 113.834579,26.5132838 C113.337164,26.5132838 112.871995,26.4211839 112.439059,26.236982 C112.006123,26.0527798 111.626159,25.8018081 111.299154,25.4840595 C110.972149,25.1663108 110.716537,24.7910047 110.532309,24.3581297 C110.348081,23.9252546 110.255968,23.4601512 110.255968,22.9628055 C110.255968,22.4654597 110.348081,22.0026588 110.532309,21.5743889 C110.716537,21.146119 110.972149,20.7731152 111.299154,20.4553666 C111.626159,20.1376179 112.008426,19.8866463 112.445968,19.7024442 C112.883509,19.5182421 113.350981,19.4261424 113.848396,19.4261424 Z M113.848396,20.752391 C113.54442,20.752391 113.261174,20.8099533 112.998649,20.9250797 C112.736124,21.040206 112.512751,21.1967754 112.328523,21.3947927 C112.144295,21.59281 112.00152,21.8276642 111.900195,22.0993623 C111.79887,22.3710605 111.748208,22.6634769 111.748208,22.9766206 C111.748208,23.2897642 111.79887,23.5798782 111.900195,23.8469712 C112.00152,24.1140643 112.146598,24.3466159 112.335431,24.5446334 C112.524265,24.7426507 112.745336,24.8969175 112.998649,25.0074389 C113.251962,25.1179601 113.530603,25.17322 113.834579,25.17322 C114.138556,25.17322 114.419499,25.1179601 114.677418,25.0074389 C114.935337,24.8969175 115.158711,24.7426507 115.347544,24.5446334 C115.536378,24.3466159 115.683758,24.1140643 115.789689,23.8469712 C115.89562,23.5798782 115.948585,23.2897642 115.948585,22.9766206 C115.948585,22.6634769 115.89562,22.3710605 115.789689,22.0993623 C115.683758,21.8276642 115.536378,21.59281 115.347544,21.3947927 C115.158711,21.1967754 114.935337,21.040206 114.677418,20.9250797 C114.419499,20.8099533 114.143161,20.752391 113.848396,20.752391 Z M122.623747,19.4261424 C123.10274,19.4261424 123.547183,19.5159396 123.95709,19.6955366 C124.366998,19.8751337 124.719328,20.1238028 125.014093,20.4415515 C125.308858,20.7593002 125.53914,21.1323039 125.704945,21.5605738 C125.87075,21.9888437 125.953651,22.4562496 125.953651,22.9628055 C125.953651,23.4693613 125.87075,23.9390697 125.704945,24.3719448 C125.53914,24.8048198 125.306555,25.1801259 125.007185,25.4978746 C124.707814,25.8156232 124.355483,26.0642924 123.950182,26.2438895 C123.54488,26.4234864 123.10274,26.5132838 122.623747,26.5132838 C122.153965,26.5132838 121.723339,26.4303939 121.331854,26.2646121 C120.94037,26.0988301 120.615673,25.8593709 120.357754,25.5462274 L120.357754,28.848034 L118.906965,28.848034 L118.906965,19.5781084 L120.247217,19.5781084 L120.247217,20.5589798 C120.495925,20.1997856 120.827531,19.9211841 121.242044,19.7231668 C121.656557,19.5251495 122.11712,19.4261424 122.623747,19.4261424 Z M122.388857,20.752391 C122.140149,20.752391 121.893748,20.7961384 121.649646,20.8836344 C121.405544,20.9711304 121.186776,21.1046749 120.993337,21.284272 C120.799898,21.4638691 120.643306,21.6918158 120.523558,21.968119 C120.40381,22.2444222 120.343937,22.575981 120.343937,22.9628055 C120.343937,23.3496299 120.401507,23.6811888 120.516649,23.957492 C120.631792,24.2337952 120.786081,24.4640444 120.97952,24.6482466 C121.172959,24.8324485 121.391727,24.9682957 121.635829,25.0557917 C121.879931,25.1432876 122.130938,25.1870351 122.388857,25.1870351 C122.674411,25.1870351 122.94384,25.1340777 123.197154,25.0281616 C123.450467,24.9222451 123.671537,24.7725834 123.860371,24.5791711 C124.049205,24.3857589 124.196585,24.1532071 124.302516,23.881509 C124.408447,23.6098108 124.461412,23.3081844 124.461412,22.9766206 C124.461412,22.6450567 124.408447,22.3434303 124.302516,22.0717322 C124.196585,21.800034 124.051508,21.5674823 123.86728,21.3740701 C123.683052,21.1806579 123.464284,21.0286934 123.210971,20.9181721 C122.957657,20.8076508 122.683622,20.752391 122.388857,20.752391 Z M130.514807,19.4261424 C130.966166,19.4261424 131.385278,19.5044271 131.772157,19.6609989 C132.159036,19.8175707 132.490641,20.034005 132.766983,20.3103082 C133.043325,20.5866113 133.25979,20.9158677 133.416384,21.2980871 C133.572978,21.6803065 133.651273,22.0924526 133.651273,22.5345377 C133.651273,22.7187398 133.639759,22.8937292 133.616731,23.0595111 C133.593702,23.225293 133.568371,23.3542326 133.540737,23.4463336 L128.483703,23.4463336 C128.585029,24.0081501 128.833733,24.4456236 129.229823,24.7587673 C129.625914,25.0719108 130.11411,25.2284804 130.694428,25.2284804 C131.090519,25.2284804 131.449758,25.1571031 131.772157,25.0143465 C132.094556,24.8715898 132.393922,24.675878 132.670264,24.4272051 L133.374933,25.4218916 C133.015688,25.7626656 132.610393,26.0297546 132.159034,26.2231669 C131.707675,26.4165791 131.210267,26.5132838 130.666794,26.5132838 C130.141745,26.5132838 129.653548,26.4234864 129.202189,26.2438895 C128.750831,26.0642924 128.363957,25.8156232 128.041558,25.4978746 C127.71916,25.1801259 127.46585,24.8048198 127.281622,24.3719448 C127.097394,23.9390697 127.005281,23.4739663 127.005281,22.9766206 C127.005281,22.4792748 127.095091,22.0141714 127.274713,21.5812965 C127.454336,21.1484214 127.70304,20.7731152 128.020833,20.4553666 C128.338626,20.1376179 128.70938,19.8866463 129.133104,19.7024442 C129.556828,19.5182421 130.017392,19.4261424 130.514807,19.4261424 Z M130.473356,20.6556854 C129.97594,20.6556854 129.552222,20.8053474 129.202189,21.1046758 C128.852156,21.4040043 128.621874,21.8069404 128.511337,22.3134962 L132.200485,22.3134962 C132.182062,21.7793101 132.004745,21.3694665 131.668529,21.0839532 C131.332313,20.7984399 130.933926,20.6556854 130.473356,20.6556854 Z M138.447319,19.5090329 C138.567067,19.5090329 138.670694,19.5159404 138.758202,19.5297556 C138.84571,19.5435707 138.926309,19.5596882 139,19.5781084 L139,20.8629118 L138.557855,20.8629118 C138.290724,20.8629118 138.035112,20.9020541 137.79101,20.98034 C137.546908,21.0586259 137.335048,21.176053 137.155426,21.3326248 C136.975804,21.4891966 136.833029,21.6849084 136.727098,21.9197662 C136.621167,22.1546239 136.568202,22.4286204 136.568202,22.741764 L136.568202,26.3613178 L135.117414,26.3613178 L135.117414,19.5781084 L136.457666,19.5781084 L136.457666,20.4899043 C136.697163,20.1675506 136.98962,19.9234864 137.335048,19.7577045 C137.680475,19.5919226 138.051228,19.5090329 138.447319,19.5090329 Z" id="KyberDevelopers" fill="#141927"></path>
            </g>
        </g>
    </g>
</svg>