<?xml version="1.0" encoding="UTF-8"?>
<svg width="25px" height="25px" viewBox="0 0 25 25" version="1.1" xmlns="http://www.w3.org/2000/svg" xmlns:xlink="http://www.w3.org/1999/xlink">
    <!-- Generator: Sketch 50.2 (55047) - http://www.bohemiancoding.com/sketch -->
    <title>Group 5</title>
    <desc>Created with Sketch.</desc>
    <defs>
        <ellipse id="path-1" cx="12.4587554" cy="12.5" rx="12.4587554" ry="12.5"></ellipse>
    </defs>
    <g id="Symbols" stroke="none" stroke-width="1" fill="none" fill-rule="evenodd">
        <g id="Footer" transform="translate(-1338.000000, -554.000000)">
            <g id="Group-5" transform="translate(1338.000000, 554.000000)">
                <g id="facebook-copy">
                    <g id="Screen-Shot-2018-06-01-at-9.58.23-AM">
                        <mask id="mask-2" fill="white">
                            <use xlink:href="#path-1"></use>
                        </mask>
                        <use id="Mask" fill="#777778" fill-rule="nonzero" xlink:href="#path-1"></use>
                    </g>
                </g>
                <path d="M6.04419546,8.38330393 C6.06386716,8.1900229 5.98974809,7.9989861 5.84461562,7.86890064 L4.3662465,6.0978836 L4.3662465,5.83333333 L8.95658263,5.83333333 L12.5046685,13.5714285 L15.6240274,5.83333333 L20,5.83333333 L20,6.0978836 L18.7359944,7.30305702 C18.6270233,7.38565878 18.572968,7.52142062 18.5955494,7.65579071 L18.5955494,16.510876 C18.572968,16.6452461 18.6270233,16.7810079 18.7359944,16.8636097 L19.9704326,18.0687831 L19.9704326,18.3333333 L13.7612823,18.3333333 L13.7612823,18.0687831 L15.0400716,16.8342152 C15.1657329,16.7092886 15.1657329,16.6725456 15.1657329,16.4814815 L15.1657329,9.32392711 L11.6102552,18.3039389 L11.1297853,18.3039389 L6.99035169,9.32392711 L6.99035169,15.3424456 C6.9558386,15.595481 7.04034655,15.8502324 7.21949891,16.0332158 L8.88266417,18.0393886 L8.88266417,18.3039389 L4.16666667,18.3039389 L4.16666667,18.0393886 L5.82983193,16.0332158 C6.0076799,15.849929 6.08726013,15.5934878 6.04419546,15.3424456 L6.04419546,8.38330393 Z" id="Shape" fill="#FFFFFF" fill-rule="nonzero"></path>
            </g>
        </g>
    </g>
</svg>