<?xml version="1.0" encoding="UTF-8"?>
<svg width="47px" height="70px" viewBox="0 0 47 70" version="1.1" xmlns="http://www.w3.org/2000/svg" xmlns:xlink="http://www.w3.org/1999/xlink">
    <!-- Generator: Sketch 50.2 (55047) - http://www.bohemiancoding.com/sketch -->
    <title>Shape</title>
    <desc>Created with Sketch.</desc>
    <defs></defs>
    <g id="Landing-Page" stroke="none" stroke-width="1" fill="none" fill-rule="evenodd">
        <g id="Landing-Page-" transform="translate(-285.000000, -2505.000000)" fill="#31CB9E" fill-rule="nonzero">
            <g id="Kyber-Network-Outlined-Logo-Black" transform="translate(285.000000, 2505.000000)">
                <path d="M21.3881822,0.724287784 L1.36930652,16.0212458 C0.501436192,16.6779334 0,17.7015934 0,18.8025109 L0,51.2312892 C0,52.3128923 0.501436192,53.3558667 1.36930652,54.0125543 L21.3881822,69.290198 C22.6417727,70.2366007 24.3775133,70.2366007 25.6118178,69.290198 L45.6306935,53.99324 C46.4985638,53.3365524 47,52.3128923 47,51.2119749 L47,18.7831965 C47,17.7015934 46.4985638,16.658619 45.6306935,16.0019314 L25.6118178,0.724287784 C24.3775133,-0.241429261 22.6417727,-0.241429261 21.3881822,0.724287784 Z M17.6852688,37.6146789 L43.4128026,52.3901497 L24.0303652,67.1849348 L17.6852688,37.6146789 Z M24.0496512,2.82955094 L43.4128026,17.6243361 L17.6852688,32.3998069 L24.0496512,2.82955094 Z M18.4181371,35.0072429 L44.377103,20.0772574 L44.377103,49.9179141 L18.4181371,35.0072429 Z M2.622897,18.358281 L21.0603201,4.27812651 L14.4645055,35.0072429 L21.0603201,65.7363592 L2.622897,51.6562047 L2.622897,18.358281 Z" id="Shape"></path>
            </g>
        </g>
    </g>
</svg>