<?xml version="1.0" encoding="UTF-8"?>
<svg width="26px" height="26px" viewBox="0 0 26 26" version="1.1" xmlns="http://www.w3.org/2000/svg" xmlns:xlink="http://www.w3.org/1999/xlink">
    <!-- Generator: Sketch 50.2 (55047) - http://www.bohemiancoding.com/sketch -->
    <title>Group 6</title>
    <desc>Created with Sketch.</desc>
    <defs>
        <ellipse id="path-1" cx="12.6004201" cy="12.6421336" rx="12.6004201" ry="12.6421336"></ellipse>
    </defs>
    <g id="Desktop" stroke="none" stroke-width="1" fill="none" fill-rule="evenodd">
        <g id="01-IEO---NOT-LOGIN" transform="translate(-1237.000000, -2484.000000)">
            <g id="Group-6" transform="translate(1237.000000, 2484.000000)">
                <g id="facebook-copy">
                    <g id="Screen-Shot-2018-06-01-at-9.58.23-AM">
                        <mask id="mask-2" fill="white">
                            <use xlink:href="#path-1"></use>
                        </mask>
                        <use id="Mask" fill="#777778" fill-rule="nonzero" xlink:href="#path-1"></use>
                    </g>
                </g>
                <g id="reddit-logo" transform="translate(4.000000, 5.000000)">
                    <path d="M14.916861,9.17185853 C14.6649519,11.685613 11.6805764,13.6771782 8.04284756,13.6771782 C4.42869924,13.6771782 1.45985238,11.7109173 1.17401029,9.22074188 C0.476371537,8.80322055 0.00246029971,8.0320138 0.00246029971,7.14003642 C0.00246029971,5.80810889 1.0509314,4.72519889 2.33923379,4.72519889 C2.80739368,4.72519889 3.2416206,4.86897345 3.6079816,5.1133902 C3.58612647,5.12834276 3.56714701,5.14559571 3.54529188,5.16112336 C4.63402243,4.49976038 6.01779723,4.07648807 7.53615362,3.9988498 L8.75371441,0.506853254 L11.3608014,1.13025975 C11.6805764,0.610370938 12.2511103,0.260136107 12.905614,0.260136107 C13.9109499,0.260136107 14.7287919,1.07735071 14.7287919,2.08262245 C14.7287919,3.08789418 13.9109499,3.90510879 12.905614,3.90510879 C11.9025785,3.90510879 11.0841614,3.08789418 11.0841614,2.08262245 C11.0841614,2.02108694 11.0962393,1.96300201 11.1014155,1.9026167 L9.2776624,1.46611713 L8.39828099,3.99309882 C9.92411413,4.04773315 11.3239927,4.44742644 12.432853,5.09211157 C12.7911621,4.86207227 13.2104355,4.72577399 13.6624916,4.72577399 C14.9502189,4.72577399 15.9992651,5.80868398 15.9992651,7.14061152 C15.9992651,7.99348222 15.5661885,8.74283523 14.916861,9.17185853 Z" id="Path" fill="#FFFFFF"></path>
                    <circle id="Oval" fill="#777778" fill-rule="nonzero" cx="5" cy="8" r="1"></circle>
                    <circle id="Oval" fill="#777778" fill-rule="nonzero" cx="10" cy="8" r="1"></circle>
                    <path d="M9.42807132,10.0864777 C7.34954009,12.0154673 5.67394669,10.1962217 5.59859208,10.1152026 C5.44003343,9.93401459 5.20873665,9.97157796 5.08157575,10.192539 C4.95389156,10.4171827 4.97900976,10.7434684 5.13652182,10.9231834 C5.15012752,10.9386506 6.10775897,12 7.49815612,12 C8.18890668,12 8.99059597,11.7377929 9.83414893,10.9526448 C10.0042201,10.795026 10.0513167,10.4731594 9.9388081,10.232312 C9.82629949,9.9944106 9.59761919,9.9281223 9.42807132,10.0864777 Z" id="Shape" fill="#777778" fill-rule="nonzero"></path>
                </g>
            </g>
        </g>
    </g>
</svg>