<?xml version="1.0" encoding="UTF-8"?>
<svg width="26px" height="26px" viewBox="0 0 26 26" version="1.1" xmlns="http://www.w3.org/2000/svg" xmlns:xlink="http://www.w3.org/1999/xlink">
    <!-- Generator: Sketch 50.2 (55047) - http://www.bohemiancoding.com/sketch -->
    <title>facebook copy</title>
    <desc>Created with Sketch.</desc>
    <defs></defs>
    <g id="Desktop" stroke="none" stroke-width="1" fill="none" fill-rule="evenodd">
        <g id="01-IEO---NOT-LOGIN" transform="translate(-1072.000000, -2479.000000)" fill-rule="nonzero">
            <g id="facebook-copy" transform="translate(1072.000000, 2479.000000)">
                <ellipse id="Oval" fill="#777778" cx="12.6004201" cy="12.6421336" rx="12.6004201" ry="12.6421336"></ellipse>
                <g id="twitter-logo-silhouette" transform="translate(5.777778, 7.703704)" fill="#FFFFFF">
                    <path d="M14.4444444,1.36720405 C13.9128078,1.59921289 13.3423693,1.75655862 12.7430183,1.82680516 C13.3549964,1.46587929 13.8234503,0.893400216 14.045475,0.21334306 C13.4714254,0.547583621 12.8377806,0.790285179 12.1626197,0.921852157 C11.6219671,0.353812892 10.8529408,0 9.99996187,0 C8.36353582,0 7.03669814,1.30676692 7.03669814,2.91755585 C7.03669814,3.14600819 7.06287283,3.36913741 7.11342847,3.58250372 C4.65111871,3.46069966 2.46771463,2.29884237 1.00639235,0.533357651 C0.750947124,0.96362351 0.605629167,1.46497273 0.605629167,2.00014349 C0.605629167,3.01267459 1.12914673,3.9060748 1.92345086,4.42876298 C1.43783822,4.41277038 0.98111453,4.28120341 0.581271829,4.06251398 L0.581271829,4.09896222 C0.581271829,5.51240067 1.60302913,6.69204043 2.95783526,6.96052074 C2.70961227,7.02630423 2.44786529,7.06275247 2.17707872,7.06275247 C1.98573672,7.06275247 1.80069648,7.04408669 1.61926735,7.00852177 C1.99654647,8.16861243 3.09052611,9.01222176 4.3866811,9.03535058 C3.37304291,9.81763946 2.09494351,10.2825637 0.706740443,10.2825637 C0.467557046,10.2825637 0.231961163,10.2683377 0,10.242559 C1.31149633,11.0719656 2.86850142,11.5555556 4.54193553,11.5555556 C9.99278684,11.5555556 12.9723124,7.10898687 12.9723124,3.25270296 L12.9623759,2.87490118 C13.5445446,2.46595103 14.0481893,1.95214247 14.4444444,1.36720405 Z" id="Shape"></path>
                </g>
            </g>
        </g>
    </g>
</svg>