<?xml version="1.0" encoding="UTF-8"?>
<svg width="25px" height="26px" viewBox="0 0 25 26" version="1.1" xmlns="http://www.w3.org/2000/svg" xmlns:xlink="http://www.w3.org/1999/xlink">
    <!-- Generator: Sketch 50.2 (55047) - http://www.bohemiancoding.com/sketch -->
    <title>Group 11</title>
    <desc>Created with Sketch.</desc>
    <defs></defs>
    <g id="Desktop" stroke="none" stroke-width="1" fill="none" fill-rule="evenodd">
        <g id="01-IEO---NOT-LOGIN" transform="translate(-1360.000000, -2479.000000)" fill-rule="nonzero">
            <g id="Group-11" transform="translate(1360.000000, 2479.000000)">
                <g id="Group-10" fill="#777778">
                    <path d="M12.4409327,25.1702128 C16.3676182,25.1702128 19.869412,23.3299534 22.149491,20.455492 C23.8591077,18.3002039 24.8818654,15.5634782 24.8818654,12.5851064 C24.8818654,5.63454405 19.3118701,0 12.4409327,0 C7.41380416,0 3.08308716,3.01624612 1.12080978,7.35733374 C0.401101825,8.94952214 0,10.7199303 0,12.5851064 C0,15.8140338 1.20207484,18.758948 3.17822175,20.9868861 C5.45591226,23.5547891 8.76193245,25.1702128 12.4409327,25.1702128 Z" id="Oval"></path>
                </g>
                <g id="youtube" transform="translate(4.000000, 7.000000)" fill="#FFFFFF">
                    <path d="M15.3763613,0.944271793 C14.7988129,0.273580668 13.7324903,0 11.6960516,0 L4.30379355,0 C2.22074839,0 1.13636129,0.291227781 0.560980645,1.00528038 C0,1.70148419 0,2.72728564 0,4.14702108 L0,6.85302934 C0,9.60350834 0.6656,11 4.30379355,11 L11.6961032,11 C13.4620903,11 14.440671,10.7585875 15.0737548,10.1667033 C15.7229935,9.5597435 16,8.56873207 16,6.85302934 L16,4.14702108 C16,2.64978961 15.9565935,1.61793772 15.3763613,0.944271793 Z M9.74745679,5.39897164 L6.68824887,6.94817897 C6.61985673,6.98281748 6.54506752,7 6.47037239,7 C6.38579943,7 6.30141462,6.97794074 6.22667245,6.93409568 C6.08593703,6.8514646 6,6.70365844 6,6.54423014 L6,3.45575128 C6,3.29659644 6.08570185,3.14892701 6.22615504,3.06625036 C6.36665527,2.9835737 6.54139862,2.97792216 6.68716702,3.0513011 L9.74637494,4.59052707 C9.90202116,4.66882833 9.99976454,4.82451931 9.99999973,4.99438474 C10.0001879,5.1643869 9.90286783,5.32030577 9.74745679,5.39897164 Z" id="XMLID_823_"></path>
                </g>
            </g>
        </g>
    </g>
</svg>